<svg xmlns="http://www.w3.org/2000/svg" width="500" height="500" fill="none" viewBox="0 0 500 500"><g clip-path="url(#clip0_46_54)"><rect width="500" height="500" fill="#030611"/><path fill="#6714FA" d="M134.079 -267.639C152.244 -248.151 287.784 -221.29 196.317 -68.3008C81.9826 122.936 96.9251 165.86 111.194 276.695C125.464 387.53 308.134 504.235 457.248 521.068C576.54 534.534 686.863 586.266 687.139 630.635L13.9945 582.652L-37.5558 146.412L134.079 -267.639Z"/><path fill="#149EFA" d="M-39.5923 -215.741C-21.4267 -196.252 235.415 -197.475 143.948 -44.486C29.614 146.75 122.145 297.17 136.414 408.005C150.683 518.84 363.026 533.37 512.14 550.203C631.432 563.669 713.985 590.003 714.26 634.372L-2.9956 575.672L-19.6754 214.97L-39.5923 -215.741Z"/><path fill="#fff" d="M180.175 135.683H197.521C202.587 135.683 206.987 136.228 210.721 137.317C214.454 138.407 217.542 139.971 219.984 142.01C222.447 144.028 224.273 146.49 225.464 149.396C226.675 152.283 227.28 155.532 227.28 159.145C227.28 162.576 226.685 165.754 225.494 168.681C224.303 171.587 222.487 174.11 220.045 176.249C217.603 178.368 214.515 180.033 210.781 181.244C207.048 182.435 202.648 183.03 197.582 183.03L180.175 183V135.683ZM199.883 174.705C202.749 174.705 205.261 174.342 207.421 173.615C209.58 172.868 211.377 171.819 212.81 170.467C214.263 169.115 215.353 167.48 216.079 165.562C216.806 163.645 217.169 161.506 217.169 159.145C217.169 156.824 216.806 154.735 216.079 152.878C215.353 151.001 214.263 149.417 212.81 148.125C211.377 146.813 209.58 145.804 207.421 145.098C205.261 144.391 202.749 144.038 199.883 144.038H189.771V174.705H199.883ZM234.092 165.018C234.092 162.596 234.586 160.285 235.575 158.085C236.564 155.865 237.987 153.907 239.844 152.212C241.701 150.517 243.971 149.164 246.655 148.155C249.36 147.146 252.427 146.642 255.858 146.642C259.269 146.642 262.337 147.156 265.062 148.186C267.806 149.195 270.127 150.587 272.024 152.363C273.942 154.139 275.405 156.228 276.414 158.63C277.443 161.032 277.958 163.605 277.958 166.35C277.958 166.693 277.948 167.066 277.928 167.47C277.928 167.853 277.908 168.206 277.867 168.529H244.082C244.465 169.599 245.081 170.578 245.929 171.466C246.797 172.354 247.876 173.121 249.168 173.767C250.46 174.412 251.953 174.917 253.648 175.28C255.344 175.623 257.221 175.795 259.279 175.795C261.338 175.795 263.386 175.583 265.425 175.159C267.463 174.715 269.411 174.16 271.268 173.494L274.295 180.336C273.124 180.881 271.934 181.365 270.723 181.789C269.532 182.193 268.281 182.536 266.969 182.818C265.677 183.081 264.315 183.283 262.882 183.424C261.469 183.565 259.976 183.636 258.401 183.636C254.385 183.636 250.863 183.151 247.836 182.183C244.809 181.214 242.276 179.892 240.237 178.217C238.199 176.542 236.665 174.574 235.636 172.313C234.606 170.053 234.092 167.621 234.092 165.018ZM268.452 161.536C268.129 160.547 267.625 159.629 266.938 158.781C266.272 157.913 265.435 157.167 264.426 156.541C263.417 155.895 262.246 155.391 260.914 155.027C259.582 154.664 258.119 154.482 256.524 154.482C254.829 154.482 253.285 154.674 251.893 155.058C250.5 155.441 249.279 155.956 248.229 156.602C247.18 157.247 246.302 157.994 245.596 158.842C244.91 159.689 244.405 160.588 244.082 161.536H268.452ZM282.681 147.247H293.064L302.358 168.741L304.78 174.766L307.202 168.741L316.496 147.247H326.88L309.957 183H299.604L282.681 147.247Z"/><path fill="#fff" d="M92.1094 241.683H109.456C114.522 241.683 118.922 242.228 122.655 243.317C126.389 244.407 129.477 245.971 131.919 248.01C134.381 250.028 136.208 252.49 137.398 255.396C138.609 258.283 139.215 261.532 139.215 265.145C139.215 268.576 138.619 271.754 137.429 274.681C136.238 277.587 134.422 280.11 131.979 282.249C129.537 284.368 126.45 286.033 122.716 287.244C118.982 288.435 114.582 289.03 109.517 289.03L92.1094 289V241.683ZM111.817 280.705C114.683 280.705 117.196 280.342 119.355 279.615C121.515 278.868 123.311 277.819 124.744 276.467C126.197 275.115 127.287 273.48 128.014 271.562C128.74 269.645 129.104 267.506 129.104 265.145C129.104 262.824 128.74 260.735 128.014 258.878C127.287 257.001 126.197 255.417 124.744 254.125C123.311 252.813 121.515 251.804 119.355 251.098C117.196 250.391 114.683 250.038 111.817 250.038H101.706V280.705H111.817ZM145.572 271.139C145.572 268.576 146.087 266.174 147.116 263.934C148.166 261.693 149.649 259.736 151.566 258.061C153.504 256.385 155.835 255.063 158.56 254.095C161.304 253.126 164.382 252.642 167.793 252.642C171.204 252.642 174.271 253.126 176.996 254.095C179.741 255.063 182.072 256.385 183.989 258.061C185.927 259.736 187.41 261.693 188.439 263.934C189.489 266.174 190.014 268.576 190.014 271.139C190.014 273.702 189.489 276.104 188.439 278.344C187.41 280.584 185.927 282.542 183.989 284.217C182.072 285.892 179.741 287.214 176.996 288.183C174.271 289.151 171.204 289.636 167.793 289.636C164.382 289.636 161.304 289.151 158.56 288.183C155.835 287.214 153.504 285.892 151.566 284.217C149.649 282.542 148.166 280.584 147.116 278.344C146.087 276.104 145.572 273.702 145.572 271.139ZM154.987 271.139C154.987 272.572 155.27 273.934 155.835 275.226C156.42 276.497 157.258 277.627 158.348 278.616C159.458 279.585 160.8 280.362 162.374 280.947C163.968 281.512 165.775 281.795 167.793 281.795C169.811 281.795 171.607 281.512 173.182 280.947C174.776 280.362 176.118 279.585 177.208 278.616C178.318 277.627 179.156 276.497 179.721 275.226C180.306 273.934 180.599 272.572 180.599 271.139C180.599 269.706 180.306 268.343 179.721 267.052C179.156 265.76 178.318 264.63 177.208 263.661C176.118 262.672 174.776 261.895 173.182 261.33C171.607 260.745 169.811 260.452 167.793 260.452C165.775 260.452 163.968 260.745 162.374 261.33C160.8 261.895 159.458 262.672 158.348 263.661C157.258 264.63 156.42 265.76 155.835 267.052C155.27 268.343 154.987 269.706 154.987 271.139ZM199.065 253.247H207.996V270.685C207.996 272.34 208.178 273.853 208.541 275.226C208.904 276.578 209.52 277.738 210.388 278.707C211.276 279.676 212.446 280.433 213.899 280.978C215.373 281.502 217.199 281.765 219.379 281.765C220.408 281.765 221.448 281.654 222.497 281.432C223.567 281.21 224.586 280.907 225.555 280.523C226.523 280.12 227.422 279.646 228.249 279.101C229.097 278.556 229.823 277.96 230.429 277.314V253.247H239.39V289H230.429V285.942C228.229 287.254 226.019 288.193 223.799 288.758C221.579 289.323 219.47 289.605 217.472 289.605C214.202 289.605 211.397 289.212 209.056 288.425C206.735 287.638 204.827 286.497 203.334 285.004C201.861 283.49 200.781 281.644 200.095 279.464C199.409 277.264 199.065 274.761 199.065 271.956V253.247ZM256.373 295.055C257.503 295.458 258.654 295.791 259.824 296.054C260.995 296.336 262.125 296.558 263.215 296.72C264.325 296.901 265.384 297.022 266.394 297.083C267.403 297.164 268.301 297.204 269.088 297.204C271.469 297.204 273.538 296.911 275.294 296.326C277.07 295.761 278.543 294.994 279.714 294.025C280.905 293.057 281.793 291.926 282.378 290.635C282.963 289.363 283.256 288.011 283.256 286.578V285.034C282.489 285.559 281.591 286.063 280.562 286.548C279.532 287.032 278.402 287.456 277.171 287.819C275.94 288.183 274.628 288.475 273.235 288.697C271.863 288.919 270.44 289.03 268.967 289.03C266.04 289.03 263.336 288.596 260.854 287.729C258.371 286.84 256.222 285.609 254.405 284.035C252.589 282.441 251.166 280.534 250.137 278.313C249.128 276.093 248.623 273.631 248.623 270.927C248.623 268.162 249.158 265.659 250.228 263.419C251.297 261.159 252.771 259.231 254.647 257.637C256.545 256.042 258.785 254.811 261.368 253.943C263.951 253.076 266.757 252.642 269.784 252.642C271.076 252.642 272.357 252.722 273.629 252.884C274.9 253.045 276.111 253.267 277.262 253.55C278.432 253.832 279.522 254.175 280.531 254.579C281.561 254.963 282.469 255.386 283.256 255.851V253.277H292.217V284.913C292.217 288.162 291.722 291.038 290.733 293.541C289.744 296.044 288.291 298.143 286.374 299.838C284.477 301.553 282.116 302.845 279.29 303.713C276.465 304.601 273.225 305.045 269.572 305.045C268.26 305.045 266.898 304.984 265.485 304.863C264.073 304.762 262.65 304.601 261.217 304.379C259.804 304.177 258.401 303.925 257.009 303.622C255.636 303.34 254.314 303.007 253.043 302.623L256.373 295.055ZM258.038 270.836C258.038 272.269 258.321 273.621 258.886 274.893C259.471 276.144 260.299 277.244 261.368 278.192C262.438 279.121 263.729 279.857 265.243 280.402C266.757 280.927 268.462 281.189 270.359 281.189C271.59 281.189 272.812 281.078 274.022 280.856C275.254 280.614 276.424 280.281 277.534 279.857C278.664 279.434 279.714 278.919 280.683 278.313C281.672 277.708 282.529 277.032 283.256 276.285V264.509C282.348 263.782 281.389 263.167 280.38 262.662C279.371 262.158 278.341 261.744 277.292 261.421C276.243 261.098 275.183 260.866 274.113 260.725C273.044 260.563 272.004 260.482 270.995 260.482C268.937 260.482 267.1 260.755 265.485 261.3C263.891 261.845 262.539 262.591 261.429 263.54C260.339 264.468 259.501 265.558 258.916 266.81C258.331 268.061 258.038 269.403 258.038 270.836ZM302.661 238.776H311.622V289H302.661V238.776ZM321.431 277.738C321.431 276.023 321.804 274.459 322.551 273.046C323.298 271.633 324.418 270.422 325.911 269.413C327.405 268.384 329.261 267.597 331.481 267.052C333.722 266.487 336.325 266.204 339.292 266.204C341.492 266.204 343.803 266.366 346.225 266.688C348.667 267.011 351.179 267.506 353.763 268.172C353.662 267.042 353.319 266.002 352.733 265.054C352.148 264.085 351.331 263.257 350.281 262.571C349.252 261.865 348.001 261.32 346.527 260.937C345.074 260.553 343.419 260.361 341.562 260.361C340.553 260.361 339.443 260.422 338.232 260.543C337.021 260.664 335.77 260.846 334.479 261.088C333.187 261.33 331.905 261.633 330.634 261.996C329.382 262.359 328.212 262.793 327.122 263.298L324.397 255.941C325.75 255.457 327.193 255.013 328.727 254.609C330.281 254.206 331.865 253.863 333.479 253.58C335.094 253.277 336.709 253.045 338.323 252.884C339.938 252.722 341.502 252.642 343.016 252.642C349.696 252.642 354.661 254.347 357.91 257.758C361.16 261.169 362.784 266.396 362.784 273.439V289H353.823V285.64C352.895 286.185 351.876 286.699 350.766 287.184C349.676 287.668 348.485 288.092 347.193 288.455C345.902 288.818 344.509 289.101 343.016 289.303C341.542 289.525 339.978 289.636 338.323 289.636C335.538 289.636 333.086 289.333 330.967 288.728C328.868 288.122 327.112 287.285 325.699 286.215C324.286 285.145 323.217 283.894 322.49 282.461C321.784 281.008 321.431 279.434 321.431 277.738ZM330.876 277.436C330.876 278.021 331.027 278.586 331.33 279.131C331.633 279.656 332.117 280.13 332.783 280.554C333.449 280.957 334.297 281.29 335.326 281.553C336.376 281.795 337.637 281.916 339.11 281.916C340.685 281.916 342.208 281.775 343.682 281.492C345.155 281.21 346.527 280.836 347.799 280.372C349.07 279.908 350.221 279.373 351.25 278.768C352.279 278.162 353.137 277.536 353.823 276.891V275.316C352.451 274.933 351.089 274.61 349.736 274.348C348.404 274.085 347.123 273.883 345.892 273.742C344.681 273.581 343.53 273.47 342.44 273.409C341.371 273.349 340.432 273.318 339.625 273.318C337.95 273.318 336.557 273.429 335.447 273.651C334.337 273.873 333.439 274.176 332.753 274.56C332.067 274.923 331.582 275.357 331.3 275.861C331.017 276.366 330.876 276.891 330.876 277.436ZM376.074 278.041C378.496 279.494 381.16 280.564 384.066 281.25C386.973 281.936 389.95 282.279 392.997 282.279C395.056 282.279 396.771 282.138 398.144 281.855C399.516 281.573 400.616 281.21 401.443 280.766C402.271 280.322 402.856 279.817 403.199 279.252C403.542 278.687 403.714 278.112 403.714 277.526C403.714 276.679 403.34 275.952 402.594 275.347C401.867 274.741 400.656 274.438 398.961 274.438C398.174 274.438 397.326 274.489 396.418 274.59C395.51 274.691 394.551 274.802 393.542 274.923C392.553 275.024 391.514 275.125 390.424 275.226C389.354 275.326 388.264 275.377 387.154 275.377C384.732 275.377 382.664 275.115 380.948 274.59C379.253 274.065 377.87 273.349 376.801 272.44C375.731 271.532 374.954 270.463 374.47 269.231C373.985 267.98 373.743 266.638 373.743 265.205C373.743 263.389 374.167 261.714 375.015 260.18C375.862 258.646 377.073 257.324 378.647 256.214C380.222 255.084 382.119 254.206 384.339 253.58C386.579 252.954 389.072 252.642 391.816 252.642C393.249 252.642 394.743 252.732 396.297 252.914C397.871 253.076 399.415 253.298 400.929 253.58C402.442 253.863 403.896 254.196 405.288 254.579C406.681 254.942 407.912 255.336 408.981 255.76L406.166 262.723C403.885 261.875 401.605 261.209 399.324 260.725C397.064 260.22 394.733 259.968 392.331 259.968C390.656 259.968 389.233 260.099 388.062 260.361C386.912 260.604 385.974 260.937 385.247 261.36C384.521 261.764 383.986 262.238 383.643 262.783C383.32 263.308 383.158 263.863 383.158 264.448C383.158 264.872 383.239 265.256 383.4 265.599C383.582 265.942 383.865 266.244 384.248 266.507C384.652 266.749 385.166 266.941 385.792 267.082C386.438 267.203 387.225 267.264 388.153 267.264C389.001 267.264 389.899 267.213 390.848 267.112C391.796 267.011 392.785 266.91 393.814 266.81C394.844 266.688 395.903 266.577 396.993 266.477C398.103 266.376 399.233 266.325 400.384 266.325C402.523 266.325 404.39 266.577 405.984 267.082C407.599 267.587 408.931 268.293 409.98 269.201C411.03 270.109 411.817 271.179 412.342 272.41C412.867 273.641 413.129 274.983 413.129 276.437C413.129 278.313 412.695 280.059 411.827 281.674C410.959 283.288 409.668 284.691 407.952 285.882C406.237 287.052 404.097 287.971 401.534 288.637C398.991 289.303 396.045 289.636 392.694 289.636C390.636 289.636 388.648 289.505 386.73 289.242C384.813 289 382.987 288.667 381.251 288.243C379.515 287.799 377.881 287.285 376.347 286.699C374.833 286.114 373.451 285.488 372.199 284.822L376.074 278.041ZM104.915 348.923C106.631 349.892 108.366 350.77 110.122 351.557C111.898 352.324 113.735 352.979 115.632 353.524C117.529 354.049 119.517 354.453 121.596 354.735C123.695 355.018 125.925 355.159 128.286 355.159C131.132 355.159 133.554 354.978 135.552 354.614C137.55 354.231 139.174 353.716 140.426 353.07C141.697 352.404 142.616 351.617 143.181 350.709C143.766 349.801 144.059 348.812 144.059 347.742C144.059 346.027 143.342 344.674 141.909 343.686C140.476 342.676 138.266 342.172 135.279 342.172C133.967 342.172 132.585 342.263 131.132 342.444C129.679 342.606 128.205 342.787 126.712 342.989C125.239 343.191 123.775 343.383 122.322 343.564C120.889 343.726 119.537 343.807 118.266 343.807C116.146 343.807 114.108 343.534 112.15 342.989C110.213 342.444 108.487 341.627 106.974 340.537C105.48 339.447 104.289 338.085 103.401 336.45C102.513 334.815 102.069 332.908 102.069 330.729C102.069 329.437 102.241 328.155 102.584 326.884C102.947 325.612 103.512 324.401 104.279 323.251C105.066 322.08 106.076 321.001 107.307 320.012C108.538 319.003 110.021 318.135 111.757 317.408C113.513 316.682 115.531 316.117 117.812 315.713C120.112 315.289 122.726 315.077 125.652 315.077C127.771 315.077 129.901 315.198 132.04 315.44C134.179 315.662 136.258 315.985 138.276 316.409C140.315 316.833 142.272 317.348 144.149 317.953C146.026 318.538 147.772 319.194 149.387 319.921L145.179 327.671C143.847 327.086 142.414 326.551 140.88 326.066C139.346 325.562 137.742 325.128 136.066 324.765C134.391 324.401 132.656 324.119 130.859 323.917C129.083 323.695 127.267 323.584 125.41 323.584C122.766 323.584 120.587 323.776 118.871 324.159C117.176 324.543 115.824 325.037 114.814 325.643C113.805 326.228 113.099 326.894 112.695 327.641C112.312 328.367 112.12 329.094 112.12 329.82C112.12 331.233 112.756 332.394 114.027 333.302C115.299 334.19 117.236 334.634 119.84 334.634C120.889 334.634 122.09 334.563 123.442 334.422C124.815 334.26 126.248 334.089 127.741 333.907C129.255 333.726 130.789 333.564 132.343 333.423C133.917 333.261 135.441 333.181 136.914 333.181C139.699 333.181 142.161 333.493 144.301 334.119C146.46 334.745 148.267 335.643 149.72 336.813C151.173 337.964 152.273 339.367 153.02 341.021C153.766 342.656 154.14 344.493 154.14 346.531C154.14 349.256 153.504 351.688 152.232 353.827C150.981 355.946 149.185 357.743 146.844 359.216C144.523 360.669 141.717 361.779 138.428 362.546C135.138 363.293 131.475 363.666 127.438 363.666C124.774 363.666 122.171 363.494 119.628 363.151C117.085 362.828 114.643 362.364 112.302 361.759C109.981 361.133 107.761 360.396 105.642 359.549C103.543 358.681 101.595 357.732 99.7988 356.703L104.915 348.923ZM163.767 357.763C163.767 356.955 163.928 356.199 164.251 355.492C164.594 354.766 165.078 354.14 165.704 353.615C166.33 353.07 167.087 352.646 167.975 352.344C168.863 352.041 169.862 351.89 170.972 351.89C172.082 351.89 173.081 352.041 173.969 352.344C174.857 352.646 175.604 353.07 176.209 353.615C176.835 354.14 177.309 354.766 177.632 355.492C177.975 356.199 178.146 356.955 178.146 357.763C178.146 358.57 177.975 359.337 177.632 360.063C177.309 360.77 176.835 361.385 176.209 361.91C175.604 362.435 174.857 362.849 173.969 363.151C173.081 363.474 172.082 363.636 170.972 363.636C169.862 363.636 168.863 363.474 167.975 363.151C167.087 362.849 166.33 362.435 165.704 361.91C165.078 361.385 164.594 360.77 164.251 360.063C163.928 359.337 163.767 358.57 163.767 357.763ZM213.476 348.923C215.191 349.892 216.927 350.77 218.683 351.557C220.459 352.324 222.295 352.979 224.192 353.524C226.09 354.049 228.077 354.453 230.156 354.735C232.255 355.018 234.485 355.159 236.847 355.159C239.692 355.159 242.114 354.978 244.112 354.614C246.11 354.231 247.735 353.716 248.986 353.07C250.258 352.404 251.176 351.617 251.741 350.709C252.326 349.801 252.619 348.812 252.619 347.742C252.619 346.027 251.903 344.674 250.47 343.686C249.037 342.676 246.827 342.172 243.84 342.172C242.528 342.172 241.146 342.263 239.692 342.444C238.239 342.606 236.766 342.787 235.272 342.989C233.799 343.191 232.336 343.383 230.883 343.564C229.45 343.726 228.098 343.807 226.826 343.807C224.707 343.807 222.669 343.534 220.711 342.989C218.773 342.444 217.048 341.627 215.534 340.537C214.041 339.447 212.85 338.085 211.962 336.45C211.074 334.815 210.63 332.908 210.63 330.729C210.63 329.437 210.801 328.155 211.145 326.884C211.508 325.612 212.073 324.401 212.84 323.251C213.627 322.08 214.636 321.001 215.867 320.012C217.098 319.003 218.582 318.135 220.317 317.408C222.073 316.682 224.091 316.117 226.372 315.713C228.673 315.289 231.286 315.077 234.213 315.077C236.332 315.077 238.461 315.198 240.601 315.44C242.74 315.662 244.819 315.985 246.837 316.409C248.875 316.833 250.833 317.348 252.71 317.953C254.587 318.538 256.333 319.194 257.947 319.921L253.739 327.671C252.407 327.086 250.974 326.551 249.44 326.066C247.907 325.562 246.302 325.128 244.627 324.765C242.952 324.401 241.216 324.119 239.42 323.917C237.644 323.695 235.827 323.584 233.971 323.584C231.327 323.584 229.147 323.776 227.432 324.159C225.736 324.543 224.384 325.037 223.375 325.643C222.366 326.228 221.66 326.894 221.256 327.641C220.872 328.367 220.681 329.094 220.681 329.82C220.681 331.233 221.316 332.394 222.588 333.302C223.859 334.19 225.797 334.634 228.4 334.634C229.45 334.634 230.651 334.563 232.003 334.422C233.375 334.26 234.808 334.089 236.302 333.907C237.815 333.726 239.349 333.564 240.903 333.423C242.478 333.261 244.001 333.181 245.475 333.181C248.26 333.181 250.722 333.493 252.861 334.119C255.021 334.745 256.827 335.643 258.28 336.813C259.733 337.964 260.833 339.367 261.58 341.021C262.327 342.656 262.7 344.493 262.7 346.531C262.7 349.256 262.064 351.688 260.793 353.827C259.542 355.946 257.745 357.743 255.404 359.216C253.083 360.669 250.278 361.779 246.988 362.546C243.699 363.293 240.035 363.666 235.999 363.666C233.335 363.666 230.731 363.494 228.188 363.151C225.646 362.828 223.203 362.364 220.862 361.759C218.541 361.133 216.321 360.396 214.202 359.549C212.103 358.681 210.156 357.732 208.359 356.703L213.476 348.923ZM276.868 322.403C275.98 322.403 275.173 322.282 274.446 322.04C273.74 321.778 273.134 321.435 272.63 321.011C272.125 320.567 271.732 320.062 271.449 319.497C271.187 318.912 271.056 318.296 271.056 317.65C271.056 316.984 271.187 316.369 271.449 315.804C271.732 315.218 272.125 314.714 272.63 314.29C273.134 313.866 273.74 313.533 274.446 313.291C275.173 313.029 275.98 312.897 276.868 312.897C277.776 312.897 278.584 313.029 279.29 313.291C280.017 313.533 280.632 313.866 281.137 314.29C281.641 314.714 282.025 315.218 282.287 315.804C282.57 316.369 282.711 316.984 282.711 317.65C282.711 318.296 282.57 318.912 282.287 319.497C282.025 320.062 281.641 320.567 281.137 321.011C280.632 321.435 280.017 321.778 279.29 322.04C278.584 322.282 277.776 322.403 276.868 322.403ZM272.388 327.277H281.349V363H272.388V327.277ZM293.095 312.776H302.056V363H293.095V312.776ZM308.625 327.247H319.009L328.303 348.741L330.725 354.766L333.146 348.741L342.44 327.247H352.824L335.901 363H325.548L308.625 327.247ZM357.396 351.738C357.396 350.023 357.769 348.459 358.516 347.046C359.262 345.633 360.382 344.422 361.876 343.413C363.369 342.384 365.226 341.597 367.446 341.052C369.687 340.487 372.29 340.204 375.257 340.204C377.457 340.204 379.768 340.366 382.189 340.688C384.632 341.011 387.144 341.506 389.728 342.172C389.627 341.042 389.284 340.002 388.698 339.054C388.113 338.085 387.296 337.257 386.246 336.571C385.217 335.865 383.965 335.32 382.492 334.937C381.039 334.553 379.384 334.361 377.527 334.361C376.518 334.361 375.408 334.422 374.197 334.543C372.986 334.664 371.735 334.846 370.443 335.088C369.152 335.33 367.87 335.633 366.599 335.996C365.347 336.359 364.177 336.793 363.087 337.298L360.362 329.941C361.715 329.457 363.158 329.013 364.691 328.609C366.245 328.206 367.83 327.863 369.444 327.58C371.059 327.277 372.674 327.045 374.288 326.884C375.903 326.722 377.467 326.642 378.98 326.642C385.661 326.642 390.626 328.347 393.875 331.758C397.124 335.169 398.749 340.396 398.749 347.439V363H389.788V359.64C388.86 360.185 387.84 360.699 386.73 361.184C385.641 361.668 384.45 362.092 383.158 362.455C381.867 362.818 380.474 363.101 378.98 363.303C377.507 363.525 375.943 363.636 374.288 363.636C371.503 363.636 369.051 363.333 366.932 362.728C364.833 362.122 363.077 361.285 361.664 360.215C360.251 359.145 359.182 357.894 358.455 356.461C357.749 355.008 357.396 353.434 357.396 351.738ZM366.841 351.436C366.841 352.021 366.992 352.586 367.295 353.131C367.598 353.656 368.082 354.13 368.748 354.554C369.414 354.957 370.262 355.29 371.291 355.553C372.34 355.795 373.602 355.916 375.075 355.916C376.649 355.916 378.173 355.775 379.646 355.492C381.12 355.21 382.492 354.836 383.764 354.372C385.035 353.908 386.186 353.373 387.215 352.768C388.244 352.162 389.102 351.536 389.788 350.891V349.316C388.416 348.933 387.053 348.61 385.701 348.348C384.369 348.085 383.088 347.883 381.856 347.742C380.646 347.581 379.495 347.47 378.405 347.409C377.336 347.349 376.397 347.318 375.59 347.318C373.915 347.318 372.522 347.429 371.412 347.651C370.302 347.873 369.404 348.176 368.718 348.56C368.032 348.923 367.547 349.357 367.265 349.861C366.982 350.366 366.841 350.891 366.841 351.436Z"/></g><defs><clipPath id="clip0_46_54"><rect width="500" height="500" fill="#fff"/></clipPath></defs></svg>